<?xml version="1.0" encoding="UTF-8"?>
<level>
  <owner>Fistachka</owner>
  <repo>zabava</repo>
  <version>v1.0.0</version>
  <next number="1" owner="Fistachka" repo="babkiweb1"/>
  <readme>
    <ru>72bb7aaaaa91f67ee119db1c9d56086ad47504aa52634793c1365d2c06e1af76</ru>
    <en>7ab0f0de6bc8c91d1e2f3fe2bd21fca2f6a3ce79c701ba4c2d7d6c91166823d2</en>
  </readme>
  <license>b1b99f5538d1fd3702219bff50c665196dfa42f6ee755c37fe41a6178d6bc6e5</license>
  <exercise number="1">
    <scale>major</scale>
    <bpm>147</bpm>
    <lowestNote>18</lowestNote>
    <tonalities>1</tonalities>
    <video name="17t.mp4" size="912384" type="video/mp4" volume="0.5">ec82b03f60d2cd8ff12abbe40492337a96fc930cda67c8b46f1edad7f213a70c</video>
    <notes>
      <note number="1" values="38" ticks="40" durationTicks="37" ppq="96" velocity="0.843"/>
      <note number="2" values="38" ticks="89" durationTicks="45" ppq="96" velocity="0.906"/>
      <note number="3" values="58" ticks="135" durationTicks="33" ppq="96" velocity="0.866"/>
      <note number="4" values="58" ticks="184" durationTicks="46" ppq="96" velocity="0.913"/>
      <note number="5" values="68" ticks="233" durationTicks="34" ppq="96" velocity="0.913"/>
      <note number="6" values="68" ticks="281" durationTicks="57" ppq="96" velocity="0.913"/>
      <note number="7" values="58" ticks="329" durationTicks="96" ppq="96" velocity="0.913"/>
    </notes>
  </exercise>
  <exercise number="2">
    <scale>major</scale>
    <bpm>147</bpm>
    <lowestNote>18</lowestNote>
    <tonalities>1</tonalities>
    <video name="18t.mp4" size="987786" type="video/mp4" volume="0.5">0afd5f5bf63ac2f288f66f793116b324851d84917621607bc54f2828f2f06c78</video>
    <notes>
      <note number="1" values="38" ticks="48" durationTicks="37" ppq="96" velocity="0.843"/>
      <note number="2" values="38" ticks="97" durationTicks="45" ppq="96" velocity="0.906"/>
      <note number="3" values="58" ticks="143" durationTicks="35" ppq="96" velocity="0.858"/>
      <note number="4" values="58" ticks="192" durationTicks="55" ppq="96" velocity="0.906"/>
      <note number="5" values="68" ticks="241" durationTicks="37" ppq="96" velocity="0.906"/>
      <note number="6" values="68" ticks="289" durationTicks="36" ppq="96" velocity="0.906"/>
      <note number="7" values="58" ticks="343" durationTicks="48" ppq="96" velocity="0.906"/>
    </notes>
  </exercise>
  <exercise number="3">
    <scale>chromaticmajor</scale>
    <bpm>147</bpm>
    <lowestNote>18</lowestNote>
    <tonalities>1</tonalities>
    <video name="19t.mp4" size="648059" type="video/mp4" volume="0.5">bbbacdf68010da198569aeef9ab97a42d10a0d9b59f89e3e35b37a0e9442892d</video>
    <notes>
      <note number="1" values="188" ticks="42" durationTicks="40" ppq="96" velocity="0.843"/>
      <note number="2" values="188" ticks="96" durationTicks="38" ppq="96" velocity="0.906"/>
      <note number="3" values="978" ticks="141" durationTicks="45" ppq="96" velocity="0.866"/>
      <note number="4" values="978" ticks="194" durationTicks="43" ppq="96" velocity="0.913"/>
      <note number="5" values="68" ticks="238" durationTicks="85" ppq="96" velocity="0.913"/>
      <note number="6" values="188" ticks="334" durationTicks="87" ppq="96" velocity="0.913"/>
    </notes>
  </exercise>
  <exercise number="4">
    <scale>major</scale>
    <bpm>147</bpm>
    <lowestNote>18</lowestNote>
    <tonalities>1</tonalities>
    <video name="20t.mp4" size="2125420" type="video/mp4" volume="0.5">89db0c471963eb52ff0f46730a4ec2d0055eacac75bbfdf91843fc008cd92157</video>
    <notes>
      <note number="1" values="78" ticks="48" durationTicks="35" ppq="96" velocity="0.843"/>
      <note number="2" values="78" ticks="100" durationTicks="45" ppq="96" velocity="0.906"/>
      <note number="3" values="68" ticks="145" durationTicks="40" ppq="96" velocity="0.858"/>
      <note number="4" values="78" ticks="193" durationTicks="42" ppq="96" velocity="0.906"/>
      <note number="5" values="188" ticks="242" durationTicks="78" ppq="96" velocity="0.906"/>
      <note number="6" values="188" ticks="337" durationTicks="94" ppq="96" velocity="0.906"/>
    </notes>
  </exercise>
  <exercise number="5">
    <scale>major</scale>
    <bpm>147</bpm>
    <lowestNote>18</lowestNote>
    <tonalities>1</tonalities>
    <video name="21t.mp4" size="1861446" type="video/mp4" volume="0.5">f0b73817ba2a7175fec4d64a8bd8ea0e0f20f2a68c8469df269c2ff8cd279ba1</video>
    <notes>
      <note number="1" values="188" ticks="34" durationTicks="77" ppq="96" velocity="0.8"/>
      <note number="2" values="188" ticks="130" durationTicks="75" ppq="96" velocity="0.8"/>
      <note number="3" values="188" ticks="226" durationTicks="96" ppq="96" velocity="0.8"/>
      <note number="4" values="58" ticks="378" durationTicks="37" ppq="96" velocity="0.8"/>
      <note number="5" values="48" ticks="424" durationTicks="96" ppq="96" velocity="0.8"/>
      <note number="6" values="28" ticks="515" durationTicks="96" ppq="96" velocity="0.8"/>
      <note number="7" values="38" ticks="612" durationTicks="96" ppq="96" velocity="0.8"/>
      <note number="8" values="18" ticks="709" durationTicks="96" ppq="96" velocity="0.8"/>
    </notes>
  </exercise>
  <exercise number="6">
    <scale>major</scale>
    <bpm>147</bpm>
    <lowestNote>18</lowestNote>
    <tonalities>1</tonalities>
    <video name="22t.mp4" size="1971978" type="video/mp4" volume="0.5">24938f9a27e43f158e13b73e747dedbbadad0b08e186a6e100c5fdae4bbed4c4</video>
    <notes>
      <note number="1" values="78" ticks="97" durationTicks="449" ppq="192" velocity="0.78"/>
      <note number="2" values="78" ticks="576" durationTicks="94" ppq="192" velocity="0.866"/>
      <note number="3" values="68" ticks="675" durationTicks="140" ppq="192" velocity="0.772"/>
      <note number="4" values="78" ticks="770" durationTicks="92" ppq="192" velocity="0.835"/>
      <note number="5" values="188" ticks="866" durationTicks="145" ppq="192" velocity="0.764"/>
      <note number="6" values="58" ticks="1058" durationTicks="157" ppq="192" velocity="0.898"/>
      <note number="7" values="58" ticks="1250" durationTicks="192" ppq="192" velocity="0.8"/>
    </notes>
  </exercise>
  <exercise number="7">
    <scale>minor</scale>
    <bpm>147</bpm>
    <lowestNote>18</lowestNote>
    <tonalities>1</tonalities>
    <video name="23t.mp4" size="1838616" type="video/mp4" volume="0.5">435920ea2c51004eb6cfb49d063afada1caf1191b9457482e833abbe88a0f757</video>
    <notes>
      <note number="1" values="188" ticks="55" durationTicks="125" ppq="96" velocity="0.882"/>
      <note number="2" values="188" ticks="201" durationTicks="46" ppq="96" velocity="0.906"/>
      <note number="3" values="78" ticks="246" durationTicks="95" ppq="96" velocity="0.787"/>
      <note number="4" values="68" ticks="344" durationTicks="92" ppq="96" velocity="0.827"/>
      <note number="5" values="58" ticks="439" durationTicks="93" ppq="96" velocity="0.78"/>
      <note number="6" values="58" ticks="535" durationTicks="93" ppq="96" velocity="0.85"/>
      <note number="7" values="68" ticks="630" durationTicks="94" ppq="96" velocity="0.748"/>
      <note number="8" values="78" ticks="725" durationTicks="96" ppq="96" velocity="0.8"/>
    </notes>
  </exercise>
  <exercise number="8">
    <scale>major</scale>
    <bpm>147</bpm>
    <lowestNote>18</lowestNote>
    <tonalities>1</tonalities>
    <video name="24t.mp4" size="3061687" type="video/mp4" volume="0.5">d19fd3d306c44843dc5c80bb403450eef781a797fa17b8501e72f8323a204b73</video>
    <notes>
      <note number="1" values="58" ticks="49" durationTicks="240" ppq="96" velocity="0.772"/>
      <note number="2" values="48" ticks="289" durationTicks="48" ppq="96" velocity="0.858"/>
      <note number="3" values="38" ticks="337" durationTicks="48" ppq="96" velocity="0.693"/>
      <note number="4" values="28" ticks="385" durationTicks="45" ppq="96" velocity="0.772"/>
      <note number="5" values="188" ticks="432" durationTicks="80" ppq="96" velocity="0.724"/>
      <note number="6" values="188" ticks="547" durationTicks="83" ppq="96" velocity="0.819"/>
      <note number="7" values="188" ticks="700" durationTicks="191" ppq="96" velocity="0.819"/>
    </notes>
  </exercise>
</level>
